<svg width="105" height="46" viewBox="0 0 105 46" fill="none" xmlns="http://www.w3.org/2000/svg">
<path d="M100.664 32.1533C99.6743 32.1532 98.6863 32.2407 97.7119 32.4147C97.0886 31.0094 96.0247 29.8246 96.0247 28.8615C96.0247 28.2191 96.4458 27.7769 96.968 27.7769C97.3297 27.7769 97.7722 27.9984 98.0726 28.6205L98.9566 26.6932C98.2935 26.4821 97.6035 26.3672 96.9077 26.3521C94.8394 26.3521 93.6744 27.6369 93.4731 28.8012C92.9918 30.0861 92.4492 31.3904 91.9668 32.3739L92.7905 32.9162C92.9918 32.6354 93.4332 31.75 93.8951 30.7684C94.2569 31.471 94.7791 32.2136 95.0397 33.0368C92.1078 33.8396 89.3763 38.0955 94.0556 38.0955C96.3252 38.0955 97.8927 36.59 98.1135 34.482C97.1304 34.4214 96.1436 34.4957 95.1807 34.7026C95.0202 35.5861 94.4572 36.2887 93.4303 36.2887C92.4462 36.2887 92.4258 35.345 93.511 34.6832C95.5599 33.4382 103.493 33.4197 103.694 36.4899C103.975 36.4501 105 35.8475 105 34.6229C105 32.8161 103.091 32.1533 100.661 32.1533H100.664Z" fill="#3A3A3A"/>
<path d="M70.0495 43.5518C70.0495 44.8367 68.9643 45.7406 67.739 45.7406C67.3029 45.7263 66.8764 45.6091 66.4943 45.3984C67.0165 45.0379 67.2373 44.5762 67.2373 44.0543C67.2373 43.2195 66.6684 42.3117 65.7115 41.5692C65.8562 41.1068 66.0256 40.6526 66.2192 40.2085L66.3961 39.7546C68.6803 40.6381 70.0495 42.0853 70.0495 43.5518Z" fill="#3A3A3A"/>
<path d="M63.3155 38.9411C64.1509 39.0757 64.9704 39.2952 65.7612 39.5961L65.5842 40.05C65.3907 40.4941 65.2212 40.9483 65.0766 41.4107C64.5668 41.0196 64.0056 40.7004 63.4089 40.4621C63.2086 40.3805 63.007 40.3072 62.8041 40.2424C61.151 39.7128 59.4006 39.7118 57.7037 40.1453C56.0574 40.5262 53.2656 41.7508 53.2656 43.4779C53.2656 43.9998 53.5661 44.3011 54.2089 44.3011C55.9369 44.3011 57.4033 42.3136 58.3669 40.5865C59.2804 40.4105 60.2157 40.3777 61.1393 40.4893C60.0541 42.5575 57.8049 45.4683 54.2896 45.4683C52.2008 45.4683 51.5182 44.3643 51.5182 43.3204C51.5182 40.8713 55.1336 39.1238 59.2304 38.7826C59.3714 38.4823 59.4521 38.2209 59.5124 38.1023L60.3555 35.8942C59.3918 37.1188 58.2463 38.0217 56.8606 38.0217C55.4993 38.0217 54.9421 37.1382 54.8789 36.2324C54.8789 36.1731 54.8721 36.1138 54.8721 36.0545C54.8721 35.521 55.0461 34.8951 55.297 34.2079C55.3758 33.9912 55.4633 33.7686 55.5547 33.5422L57.2623 29.1055C57.4005 28.7815 57.4754 28.4341 57.483 28.0821C57.483 27.6807 57.343 27.3191 56.9812 27.1179C57.8049 26.9984 60.5967 26.6563 61.0381 26.4162L57.8846 34.483C57.7506 34.7859 57.6744 35.1113 57.66 35.4422C57.66 35.8232 57.8204 36.0847 58.2823 36.0847C59.5883 36.0847 60.8942 33.8561 61.6975 32.3506L63.8669 26.7088C64.4688 26.7496 66.3174 26.6485 66.7394 26.4084L61.9026 38.7778C62.3918 38.8128 62.8643 38.8692 63.3155 38.9411Z" fill="#3A3A3A"/>
<path d="M75.4912 33.5703C75.1498 34.413 74.7881 35.3567 74.7881 36.0973C74.7881 37.04 75.3307 38.0245 76.8166 38.0245C79.3876 38.0245 81.6368 35.0933 82.9428 32.6237L82.0793 32.1018C81.2955 33.6073 79.6891 36.0973 78.2431 36.0973C77.7569 36.0973 77.5799 35.8358 77.5799 35.4344C77.5799 35.173 77.6772 34.8318 77.8211 34.4907C78.9656 31.54 80.0703 28.5087 81.2955 25.5978C80.3937 25.6739 79.4873 25.6804 78.5844 25.6173L75.4912 33.5703ZM83.4446 24.3159C85.755 23.2118 87.2214 21.2642 87.2214 19.8996C87.2214 19.056 86.638 18.4136 85.3933 18.4136C82.7425 18.4136 80.6732 21.2039 79.3274 23.9748C74.4867 23.3916 69.7063 18.7149 64.1829 18.7149C60.3059 18.7149 59.3014 21.0639 59.3014 22.3478C59.3014 22.7502 59.3986 23.0281 59.5425 23.1108C59.5425 22.4683 61.2705 21.6461 63.7239 21.6461C67.46 21.6461 71.795 23.4529 75.6545 24.4763C78.2859 25.1566 80.9367 25.4997 83.4475 24.3159H83.4446ZM85.5946 19.3592C85.8951 19.3592 86.0361 19.5594 86.0361 19.8811C86.0361 20.8647 84.6504 23.0524 82.0394 23.7959C83.0634 21.6879 84.4491 19.3592 85.5946 19.3592Z" fill="#3A3A3A"/>
<path d="M56.6797 32.0026C55.896 33.4682 54.309 35.9981 52.9029 35.9981C52.4614 35.9981 52.2805 35.7367 52.2805 35.3751C52.2912 35.0405 52.3734 34.7121 52.5217 34.412L55.6752 26.3219C55.2133 26.5823 53.3414 26.663 52.9631 26.663C52.8834 27.2053 52.6024 28.1685 52.4769 28.7711L52.3155 28.8313C52.3325 28.6846 52.3393 28.5368 52.3359 28.3891C52.3359 27.1645 51.874 26.2412 50.5681 26.2412C47.3348 26.2412 43.6591 31.9628 43.6591 35.3955C43.6591 36.8815 44.3398 37.9225 46.0094 37.9225C47.5157 37.9225 48.7409 36.8378 49.7649 34.9708C49.6661 35.2896 49.6121 35.6207 49.6044 35.9544C49.6044 36.9389 50.0264 37.9225 51.4929 37.9225C53.9832 37.9225 56.213 34.9912 57.5218 32.5216L56.6797 32.0026ZM47.2395 35.9981C46.7533 35.9981 46.5588 35.6161 46.5588 34.9941C46.5588 32.8064 49.2709 27.667 50.8977 27.667C51.3392 27.667 51.5201 28.048 51.5201 28.6505C51.5201 29.1929 51.3801 29.8751 51.1992 30.5574C50.114 32.8064 48.6077 36 47.2424 36L47.2395 35.9981Z" fill="#3A3A3A"/>
<path d="M92.1322 31.8599C91.4894 33.2857 89.0593 36.2334 86.2471 36.2334C84.841 36.2334 84.3023 35.5113 84.3023 34.1857C84.3087 33.7598 84.3628 33.336 84.4637 32.9222C84.8422 33.0572 85.2425 33.1208 85.6442 33.1098C88.0947 33.1098 90.7659 31.0416 90.7659 28.4728C90.7659 27.0675 89.9433 26.324 88.4321 26.324C84.6397 26.324 81.528 31.062 81.528 34.3742C81.528 36.5629 82.9136 38.1286 85.3204 38.1286C88.4321 38.1286 91.3659 35.6017 92.913 32.548L92.1322 31.8599ZM88.0752 27.5641C88.4564 27.5641 88.6587 27.9053 88.6587 28.3873C88.6587 29.6508 87.3527 31.9202 84.701 32.0407C85.4449 29.7528 87.0717 27.5641 88.0762 27.5641H88.0752Z" fill="#3A3A3A"/>
<path d="M73.699 25.9797C72.2929 25.9797 70.9675 26.9837 69.822 28.9508H69.6421L70.7662 26.0206C70.2246 26.3218 67.8947 26.7232 66.9738 26.7631C67.3754 26.9643 67.5767 27.2646 67.5767 27.7262C67.5767 27.9877 67.5164 28.2287 67.3559 28.6904L63.3155 38.941L62.8041 40.2414L61.5671 43.3825L64.8413 43.0812C64.8299 42.515 64.9094 41.9507 65.0766 41.4096C65.2212 40.9472 65.3907 40.493 65.5842 40.0489L65.7612 39.5951L67.3715 35.4723V35.552C67.3715 36.7367 67.8577 37.6804 69.2599 37.6804C72.6342 37.6804 75.9083 32.2193 75.9083 28.8274C75.9083 27.3248 75.286 25.9797 73.699 25.9797ZM68.9186 35.8173C68.3352 35.8173 68.1757 35.3556 68.1757 34.7326C68.1757 34.1097 68.3361 33.372 68.5365 32.7655C69.6012 30.3766 71.1678 27.5056 72.5341 27.5056C73.0203 27.5056 73.2148 27.8672 73.2148 28.4892C73.2186 30.7177 70.7662 35.8173 68.9186 35.8173Z" fill="#3A3A3A"/>
<path d="M44.5537 32.0027C43.6503 33.7521 42.0254 35.9982 39.8336 35.9982C39.2307 35.9982 38.9496 35.657 38.9496 35.1351C38.9488 34.8786 39.0035 34.625 39.1101 34.3916L41.7823 27.5883H43.9916L44.3728 26.5008H42.2238L44.6344 20.3574C44.1725 20.6189 41.4001 20.96 40.557 21.0805C40.9382 21.2807 41.0792 21.6423 41.0792 22.0437C41.0713 22.3961 40.9961 22.7438 40.8575 23.068L39.5117 26.5008H37.9257L37.5241 27.5845H39.0867L36.7763 33.446C36.4952 34.1691 36.3542 34.8066 36.3542 35.3898C36.3542 36.9759 37.3792 37.9167 38.9856 37.9167C41.6977 37.9167 44.0072 35.2061 45.3938 32.5159L44.5537 32.0027Z" fill="#3A3A3A"/>
<path d="M40.5921 21.102C40.5921 19.5771 39.2463 18.2922 36.6353 18.2922C32.8789 18.2922 30.3487 20.8814 30.3487 23.9934C30.3477 24.2554 30.3678 24.517 30.4089 24.7758C26.8334 24.0954 26.9335 19.9377 29.103 19.2758C28.7617 18.6927 28.1588 18.4118 27.4761 18.4118C23.921 18.4118 22.8163 25.1179 29.9869 26.0208C30.3487 26.0606 32.3567 26.2618 35.2895 25.7399C38.8447 24.9167 40.5921 22.8485 40.5921 21.102ZM30.971 26.6632C31.2776 27.3311 31.6335 27.9753 32.0358 28.5905C32.7388 29.7752 33.3816 30.8987 33.3816 32.1437C33.3816 34.071 31.4125 35.3354 29.1429 35.3354C26.9734 35.3354 26.0097 34.1915 26.0097 32.9261C26.0097 31.6218 26.9938 30.196 28.6615 29.5536C28.1586 29.3193 27.6089 29.2027 27.0541 29.2125C24.4432 29.2125 22.6782 31.1193 22.6782 33.4082C22.6782 35.697 24.4665 37.9255 28.7237 37.9255C33.3242 37.9255 36.3368 35.2752 36.3368 31.6617C36.3368 29.574 35.3128 28.2892 34.4289 27.0442C34.2838 26.8791 34.1497 26.7048 34.0273 26.5223C33.0139 26.6381 31.9937 26.6852 30.9739 26.6632H30.971ZM33.12 24.8166C33 24.4119 32.9327 23.9935 32.9197 23.5716C32.9197 21.0447 35.1485 19.5363 36.8561 19.5363C37.88 19.5363 38.3429 20.0582 38.3429 20.7997C38.3429 22.1847 36.6149 24.3958 33.12 24.8146V24.8166Z" fill="#3A3A3A"/>
<path d="M10.4248 38.3579C10.4248 38.3579 10.7496 31.3602 12.4834 28.5709C12.4834 28.5709 14.7317 25.8428 18.7361 23.9058C22.7405 21.9688 25.2629 19.0133 24.346 17.5379C24.346 17.5379 22.9418 18.6245 21.2517 18.6809C21.2517 18.6809 26.2733 16.0567 28.6294 13.2587C30.9856 10.4606 28.7131 8.86956 28.7131 8.86956C28.7131 8.86956 27.5151 10.6122 25.0636 11.3197C25.0636 11.3197 31.5331 7.54973 32.8634 0.259521C32.8634 0.259521 24.4753 0.727976 21.8225 5.95484C21.8225 5.95484 23.0468 2.83797 22.0997 2.41227C21.1525 1.98658 15.8927 6.25321 16.3303 13.7835C16.3303 13.7835 15.5174 11.3139 16.8924 7.64108C16.8924 7.64108 12.9055 8.3739 11.9535 13.1576C11.0015 17.9413 11.9788 20.8812 11.9788 20.8812C11.9788 20.8812 11.2417 19.3972 11.228 17.2201C11.228 17.2201 9.90653 18.8237 10.525 21.6733C11.1434 24.5229 11.3642 25.6834 11.1891 26.7544C11.1891 26.7544 17.2026 12.969 28.3037 4.24916C24.2769 8.0036 11.3535 20.3243 8.85535 37.7796C8.85924 37.7748 9.15096 38.7632 10.4248 38.3579Z" fill="#20A637"/>
<path d="M9.75867 31.1988C9.75867 31.1988 9.65268 29.6963 9.20731 29.1753C8.06308 28.1947 6.80438 27.3561 5.45864 26.6776C3.26293 25.5803 3.04997 23.8766 3.87847 22.8668C3.87847 22.8668 5.29722 23.2555 6.52344 23.2555C6.52344 23.2555 3.44477 22.8668 1.85 21.0765C0.25524 19.2863 1.67691 18.4339 2.11742 18.2172C2.11742 18.2172 2.85257 18.8081 3.70343 19.0326C3.70343 19.0326 -0.922357 16.5825 0.159943 12.1457C0.159943 12.1457 4.28299 10.8415 6.78599 16.6592C6.78599 16.6592 6.23755 14.6902 5.54811 13.9632C5.54811 13.9632 8.87183 13.694 8.27087 20.2912C8.27087 20.2912 8.61997 19.0598 8.64623 18.639C8.64623 18.639 10.2021 19.7081 10.1856 22.0669C10.169 24.4257 9.93079 26.4404 9.99108 27.4901C9.99108 27.4901 6.93672 17.4854 2.7456 14.1848C5.21359 16.6417 9.33762 25.8748 10.1087 29.67C10.1087 29.67 9.99108 30.9782 9.75867 31.1988Z" fill="#20A637"/>
</svg>
