<svg width="157" height="68" viewBox="0 0 157 68" fill="none" xmlns="http://www.w3.org/2000/svg">
<path d="M150.513 47.6854C149.033 47.6852 147.556 47.816 146.099 48.0763C145.167 45.975 143.576 44.2037 143.576 42.7637C143.576 41.8032 144.206 41.142 144.987 41.142C145.527 41.142 146.189 41.4733 146.638 42.4033L147.96 39.5218C146.968 39.2062 145.937 39.0344 144.896 39.0117C141.804 39.0117 140.062 40.9327 139.761 42.6736C139.042 44.5946 138.23 46.5447 137.509 48.0152L138.741 48.8261C139.042 48.4061 139.702 47.0823 140.392 45.6147C140.933 46.6653 141.714 47.7755 142.103 49.0062C137.72 50.2065 133.636 56.5697 140.632 56.5697C144.026 56.5697 146.369 54.3188 146.699 51.167C145.229 51.0765 143.754 51.1875 142.314 51.4969C142.074 52.8178 141.233 53.8684 139.697 53.8684C138.226 53.8684 138.195 52.4574 139.818 51.4678C142.881 49.6064 154.742 49.5788 155.043 54.1692C155.463 54.1096 156.996 53.2087 156.996 51.3777C156.996 48.6764 154.142 47.6854 150.508 47.6854H150.513Z" fill="#3A3A3A"/>
<path d="M104.74 64.7276C104.74 66.6486 103.117 68 101.285 68C100.633 67.9788 99.9956 67.8035 99.4244 67.4885C100.205 66.9494 100.535 66.2592 100.535 65.4789C100.535 64.2306 99.6847 62.8734 98.254 61.7633C98.4703 61.072 98.7236 60.3929 99.013 59.7289L99.2776 59.0503C102.693 60.3712 104.74 62.5349 104.74 64.7276Z" fill="#3A3A3A"/>
<path d="M94.6717 57.8341C95.9207 58.0354 97.1459 58.3636 98.3282 58.8135L98.0636 59.4921C97.7743 60.1561 97.5209 60.8352 97.3047 61.5265C96.5425 60.9418 95.7035 60.4646 94.8113 60.1082C94.5118 59.9862 94.2103 59.8767 93.907 59.7798C91.4353 58.9879 88.8183 58.9864 86.2813 59.6345C83.8198 60.2042 79.6457 62.0351 79.6457 64.6173C79.6457 65.3976 80.095 65.8481 81.056 65.8481C83.6396 65.8481 85.832 62.8764 87.2728 60.2942C88.6386 60.0311 90.037 59.982 91.4179 60.1489C89.7953 63.2412 86.4325 67.5932 81.1767 67.5932C78.0537 67.5932 77.0331 65.9425 77.0331 64.3819C77.0331 60.72 82.4387 58.1073 88.5639 57.5973C88.7747 57.1483 88.8954 56.7574 88.9855 56.5801L90.246 53.2786C88.8052 55.1095 87.0926 56.4595 85.0208 56.4595C82.9853 56.4595 82.1522 55.1386 82.0577 53.7843C82.0577 53.6956 82.0476 53.607 82.0476 53.5184C82.0476 52.7206 82.3078 51.7848 82.6829 50.7574C82.8007 50.4334 82.9315 50.1006 83.0682 49.7621L85.6212 43.1286C85.8279 42.6443 85.9399 42.1249 85.9513 41.5985C85.9513 40.9983 85.7419 40.4578 85.201 40.157C86.4325 39.9782 90.6066 39.4667 91.2667 39.1078L86.5517 51.1687C86.3513 51.6217 86.2374 52.1081 86.2159 52.6029C86.2159 53.1725 86.4558 53.5634 87.1464 53.5634C89.0989 53.5634 91.0515 50.2314 92.2524 47.9805L95.4961 39.5452C96.396 39.6062 99.1599 39.4551 99.7909 39.0962L92.5592 57.59C93.2905 57.6423 93.9971 57.7266 94.6717 57.8341Z" fill="#3A3A3A"/>
<path d="M112.876 49.8039C112.366 51.0638 111.825 52.4747 111.825 53.582C111.825 54.9915 112.636 56.4635 114.858 56.4635C118.702 56.4635 122.064 52.0809 124.017 48.3886L122.726 47.6083C121.554 49.8591 119.152 53.582 116.99 53.582C116.263 53.582 115.999 53.1911 115.999 52.591C115.999 52.2001 116.144 51.6901 116.359 51.18C118.071 46.7684 119.722 42.2361 121.554 37.884C120.206 37.9978 118.851 38.0075 117.501 37.9131L112.876 49.8039ZM124.767 35.9674C128.222 34.3166 130.414 31.4046 130.414 29.3644C130.414 28.1031 129.542 27.1426 127.681 27.1426C123.718 27.1426 120.624 31.3145 118.611 35.4573C111.374 34.5854 104.227 27.593 95.9686 27.593C90.1719 27.593 88.67 31.1052 88.67 33.0248C88.67 33.6264 88.8154 34.042 89.0306 34.1655C89.0306 33.205 91.6142 31.9756 95.2823 31.9756C100.868 31.9756 107.35 34.677 113.12 36.2071C117.054 37.2243 121.018 37.7372 124.772 35.9674H124.767ZM127.982 28.5565C128.431 28.5565 128.642 28.8558 128.642 29.3368C128.642 30.8073 126.57 34.0783 122.666 35.1899C124.197 32.0381 126.269 28.5565 127.982 28.5565Z" fill="#3A3A3A"/>
<path d="M84.7503 47.4603C83.5785 49.6516 81.2057 53.434 79.1034 53.434C78.4434 53.434 78.1729 53.0431 78.1729 52.5026C78.1889 52.0023 78.3118 51.5113 78.5335 51.0625L83.2485 38.9668C82.5579 39.3562 79.7591 39.4768 79.1936 39.4768C79.0743 40.2877 78.6542 41.7277 78.4666 42.6287L78.2253 42.7187C78.2507 42.4993 78.2609 42.2784 78.2558 42.0576C78.2558 40.2267 77.5652 38.8462 75.6126 38.8462C70.7784 38.8462 65.2827 47.4007 65.2827 52.5331C65.2827 54.7549 66.3004 56.3112 68.7968 56.3112C71.0489 56.3112 72.8808 54.6895 74.4117 51.8981C74.264 52.3748 74.1833 52.8697 74.1718 53.3686C74.1718 54.8406 74.8028 56.3112 76.9953 56.3112C80.7187 56.3112 84.0525 51.9286 86.0094 48.2362L84.7503 47.4603ZM70.6359 53.434C69.909 53.434 69.6182 52.863 69.6182 51.933C69.6182 48.662 73.6731 40.9779 76.1055 40.9779C76.7656 40.9779 77.036 41.5475 77.036 42.4485C77.036 43.2593 76.8266 44.2794 76.5562 45.2995C74.9337 48.662 72.6816 53.4369 70.6403 53.4369L70.6359 53.434Z" fill="#3A3A3A"/>
<path d="M137.756 47.2467C136.795 49.3784 133.162 53.7857 128.957 53.7857C126.855 53.7857 126.05 52.706 126.05 50.724C126.059 50.0873 126.14 49.4536 126.291 48.8349C126.857 49.0367 127.455 49.1318 128.056 49.1154C131.72 49.1154 135.714 46.0232 135.714 42.1826C135.714 40.0814 134.484 38.9697 132.224 38.9697C126.554 38.9697 121.902 46.0537 121.902 51.0059C121.902 54.2783 123.973 56.6193 127.572 56.6193C132.224 56.6193 136.611 52.8412 138.924 48.2755L137.756 47.2467ZM131.691 40.8239C132.261 40.8239 132.563 41.3339 132.563 42.0547C132.563 43.9437 130.61 47.3368 126.646 47.517C127.758 44.0963 130.19 40.8239 131.692 40.8239H131.691Z" fill="#3A3A3A"/>
<path d="M110.196 38.4551C108.094 38.4551 106.112 39.9561 104.4 42.8972H104.131L105.811 38.5161C105.002 38.9666 101.518 39.5667 100.141 39.6263C100.742 39.9271 101.043 40.3761 101.043 41.0663C101.043 41.4572 100.953 41.8176 100.713 42.5078L94.6717 57.8338L93.907 59.7781L92.0576 64.4746L96.9529 64.0241C96.9359 63.1776 97.0547 62.3338 97.3047 61.5247C97.5209 60.8335 97.7743 60.1544 98.0636 59.4904L98.3283 58.8118L100.736 52.6477V52.7668C100.736 54.5382 101.463 55.9491 103.559 55.9491C108.604 55.9491 113.5 47.7841 113.5 42.7127C113.5 40.4662 112.569 38.4551 110.196 38.4551ZM103.049 53.1635C102.177 53.1635 101.938 52.4733 101.938 51.5418C101.938 50.6104 102.178 49.5075 102.478 48.6007C104.07 45.029 106.412 40.7365 108.455 40.7365C109.182 40.7365 109.472 41.277 109.472 42.207C109.478 45.539 105.811 53.1635 103.049 53.1635Z" fill="#3A3A3A"/>
<path d="M66.6203 47.4601C65.2696 50.0757 62.8402 53.4338 59.5631 53.4338C58.6617 53.4338 58.2415 52.9238 58.2415 52.1435C58.2403 51.7599 58.3221 51.3807 58.4814 51.0318L62.4767 40.86H65.78L66.3499 39.234H63.1368L66.741 30.0488C66.0504 30.4397 61.9053 30.9498 60.6448 31.1299C61.2147 31.4293 61.4255 31.9698 61.4255 32.57C61.4137 33.097 61.3012 33.6168 61.0941 34.1016L59.0819 39.234H56.7106L56.1101 40.8542H58.4465L54.9921 49.6179C54.5719 50.6991 54.3611 51.6523 54.3611 52.5242C54.3611 54.8957 55.8935 56.3023 58.2953 56.3023C62.3502 56.3023 65.8032 52.2495 67.8765 48.2273L66.6203 47.4601Z" fill="#3A3A3A"/>
<path d="M60.6972 31.1619C60.6972 28.882 58.685 26.9609 54.7813 26.9609C49.1649 26.9609 45.3819 30.832 45.3819 35.4849C45.3804 35.8766 45.4105 36.2678 45.472 36.6547C40.1261 35.6375 40.2758 29.4211 43.5194 28.4315C43.0091 27.5596 42.1077 27.1397 41.0871 27.1397C35.7717 27.1397 34.12 37.1662 44.841 38.5161C45.3819 38.5757 48.3842 38.8765 52.7691 38.0962C58.0845 36.8654 60.6972 33.7731 60.6972 31.1619ZM46.3124 39.4766C46.7708 40.4753 47.303 41.4384 47.9044 42.3582C48.9555 44.1295 49.9166 45.8093 49.9166 47.6707C49.9166 50.5523 46.9724 52.4428 43.579 52.4428C40.3354 52.4428 38.8946 50.7325 38.8946 48.8405C38.8946 46.8904 40.366 44.7587 42.8594 43.7982C42.1075 43.4479 41.2856 43.2735 40.4561 43.2881C36.5524 43.2881 33.9136 46.1392 33.9136 49.5612C33.9136 52.9833 36.5873 56.3153 42.9524 56.3153C49.8308 56.3153 54.3349 52.3527 54.3349 46.95C54.3349 43.8287 52.804 41.9077 51.4824 40.0462C51.2655 39.7995 51.0649 39.5388 50.882 39.2659C49.3667 39.4391 47.8415 39.5095 46.3167 39.4766H46.3124ZM49.5255 36.7157C49.3461 36.1107 49.2454 35.485 49.226 34.8543C49.226 31.0762 52.5583 28.8209 55.1113 28.8209C56.6423 28.8209 57.3343 29.6012 57.3343 30.71C57.3343 32.7807 54.7508 36.0865 49.5255 36.7128V36.7157Z" fill="#3A3A3A"/>
<path d="M15.593 56.9621C15.593 56.9621 16.0786 46.4997 18.6709 42.3293C18.6709 42.3293 22.0323 38.2504 28.0195 35.3543C34.0066 32.4582 37.778 28.0393 36.407 25.8335C36.407 25.8335 34.3075 27.4581 31.7807 27.5424C31.7807 27.5424 39.2886 23.6189 42.8114 19.4354C46.3341 15.2519 42.9364 12.8732 42.9364 12.8732C42.9364 12.8732 41.1452 15.4786 37.4799 16.5365C37.4799 16.5365 47.1527 10.8998 49.1416 0C49.1416 0 36.6003 0.700402 32.6341 8.51526C32.6341 8.51526 34.4646 3.85512 33.0485 3.21865C31.6324 2.58219 23.7683 8.96136 24.4225 20.2201C24.4225 20.2201 23.2071 16.5277 25.2629 11.0364C25.2629 11.0364 19.3019 12.1321 17.8786 19.2843C16.4552 26.4365 17.9164 30.8322 17.9164 30.8322C17.9164 30.8322 16.8143 28.6133 16.794 25.3583C16.794 25.3583 14.8181 27.756 15.7428 32.0165C16.6675 36.277 16.9975 38.0121 16.7358 39.6134C16.7358 39.6134 25.7267 19.0024 42.3243 5.96504C36.3037 11.5784 16.9815 29.9996 13.2465 56.0975C13.2523 56.0903 13.6884 57.5681 15.593 56.9621Z" fill="#20A637"/>
<path d="M14.5971 46.2587C14.5971 46.2587 14.4386 44.0122 13.7727 43.2333C12.0619 41.7672 10.18 40.5133 8.16797 39.4988C4.88508 37.8583 4.56667 35.311 5.80539 33.8012C5.80539 33.8012 7.92662 34.3824 9.75998 34.3824C9.75998 34.3824 5.15695 33.8012 2.77257 31.1245C0.388189 28.4479 2.51378 27.1735 3.17239 26.8495C3.17239 26.8495 4.27153 27.733 5.54369 28.0686C5.54369 28.0686 -1.37247 24.4053 0.245707 17.7718C0.245707 17.7718 6.41021 15.8218 10.1525 24.5201C10.1525 24.5201 9.33253 21.5761 8.30172 20.4892C8.30172 20.4892 13.2711 20.0867 12.3726 29.9504C12.3726 29.9504 12.8946 28.1093 12.9338 27.4801C12.9338 27.4801 15.2601 29.0785 15.2353 32.6053C15.2106 36.132 14.8544 39.1443 14.9446 40.7136C14.9446 40.7136 10.3779 25.7553 4.11161 20.8205C7.80158 24.494 13.9675 38.2986 15.1205 43.973C15.1205 43.973 14.9446 45.9289 14.5971 46.2587Z" fill="#20A637"/>
</svg>
